<svg width="24" height="25" viewBox="0 0 24 25" fill="none" xmlns="http://www.w3.org/2000/svg">
<g clip-path="url(#clip0_1942_4684)">
<path d="M15.5548 14.5974H14.762L14.481 14.3265C15.1081 13.5979 15.5665 12.7397 15.8233 11.8133C16.08 10.8868 16.1288 9.91511 15.9662 8.96762C15.4946 6.1778 13.1664 3.94995 10.3565 3.60875C9.3686 3.48378 8.36524 3.58644 7.42316 3.9089C6.48108 4.23135 5.62525 4.76504 4.92116 5.46913C4.21707 6.17322 3.68338 7.02906 3.36092 7.97114C3.03847 8.91322 2.9358 9.91658 3.06078 10.9044C3.40198 13.7143 5.62982 16.0425 8.41965 16.5142C9.36714 16.6768 10.3389 16.628 11.2653 16.3712C12.1917 16.1145 13.0499 15.6561 13.7785 15.029L14.0495 15.31V16.1027L18.3145 20.3678C18.7259 20.7792 19.3983 20.7792 19.8098 20.3678C20.2212 19.9563 20.2212 19.2839 19.8098 18.8725L15.5548 14.5974ZM9.53357 14.5974C7.03477 14.5974 5.01767 12.5803 5.01767 10.0815C5.01767 7.58274 7.03477 5.56564 9.53357 5.56564C12.0324 5.56564 14.0495 7.58274 14.0495 10.0815C14.0495 12.5803 12.0324 14.5974 9.53357 14.5974Z" fill="#757575"/>
</g>
<defs>
<clipPath id="clip0_1942_4684">
<rect width="24" height="24" fill="white" transform="translate(0 0.547852)"/>
</clipPath>
</defs>
</svg>
