<svg width="54" height="48" viewBox="0 0 54 48" fill="none" xmlns="http://www.w3.org/2000/svg">
<path d="M36.6068 0V4.8096H31.7972V0H36.6068ZM22.322 3.924L25.7252 7.3248L22.3244 10.7256L18.9236 7.3248L22.322 3.924ZM46.082 3.924L49.478 7.3224L46.082 10.7232L42.6788 7.3248L46.082 3.924ZM24.4988 12.132C26.337 9.59955 29.0918 7.88536 32.1758 7.35491C35.2599 6.82445 38.4291 7.51968 41.0079 9.29239C43.5866 11.0651 45.3709 13.775 45.9803 16.8444C46.5897 19.9138 45.9759 23.0998 44.27 25.7232C46.9124 28.0512 48.5972 31.4208 48.5972 35.2008C48.5972 42.3528 42.602 48 35.3972 48H11.6372C5.62517 48 0.597168 43.2864 0.597168 37.2816C0.597168 32.8896 3.29717 29.1792 7.09157 27.5112C7.08216 27.3009 7.07735 27.0905 7.07717 26.88C7.07717 18.576 14.0396 12 22.4372 12C23.1348 12 23.822 12.0448 24.4988 12.1344M29.558 13.6944C33.1388 15.5136 35.9084 18.6696 37.1228 22.512C38.1772 22.6464 39.1852 22.8944 40.1468 23.256C41.129 21.8179 41.5568 20.0725 41.3507 18.3432C41.1446 16.6138 40.3187 15.0178 39.026 13.8508C37.7334 12.6837 36.0615 12.0248 34.3201 11.9961C32.5788 11.9673 30.8861 12.5707 29.5556 13.6944M22.4372 16.8C16.5188 16.8 11.8772 21.3984 11.8772 26.88C11.8772 27.5104 11.9356 28.1232 12.0524 28.7184L12.494 31.0104L10.214 31.5144C7.39397 32.1384 5.39717 34.5384 5.39717 37.2816C5.39717 40.464 8.10437 43.2 11.6372 43.2H35.3972C40.1228 43.2 43.7972 39.5352 43.7972 35.2008C43.7972 32.2824 42.1508 29.688 39.6188 28.2816C38.2851 27.543 36.7798 27.1704 35.2556 27.2016L33.206 27.2328L32.8532 25.2144C32.1764 21.3216 29.1332 18.12 25.0916 17.1216C24.2231 16.9073 23.3317 16.7993 22.4372 16.8ZM48.5972 16.8H53.4068V21.6096H48.5972V16.8Z" fill="black"/>
</svg>
