<svg width="48" height="50" viewBox="0 0 48 50" fill="none" xmlns="http://www.w3.org/2000/svg">
<path d="M39.95 12.7778C39.8778 9.70185 38.6053 6.77612 36.4045 4.62599C34.2036 2.47586 31.249 1.27191 28.1722 1.27148C26.14 1.27205 24.1425 1.79898 22.3744 2.80094C20.6063 3.80291 19.1278 5.24574 18.0831 6.9889C17.0827 6.43734 15.9588 6.14827 14.8164 6.14867C13.0412 6.14918 11.3353 6.83804 10.0574 8.0704C8.7796 9.30276 8.02942 10.9826 7.96464 12.7567C6.01564 13.3941 4.3177 14.6307 3.11299 16.2901C1.90829 17.9495 1.25834 19.9469 1.25586 21.9975C1.25586 27.3769 5.62274 31.7486 11.007 31.7486V31.7438H36.8052C42.1879 31.7438 46.5564 27.3753 46.5564 21.9926C46.5556 19.9591 45.918 17.9769 44.7332 16.3242C43.5483 14.6715 41.8756 13.4313 39.95 12.7778ZM36.8069 28.4983H11.0054C9.28202 28.494 7.63053 27.8072 6.41223 26.5883C5.19394 25.3694 4.50804 23.7176 4.50461 21.9943C4.50136 18.7731 6.86114 16.1143 9.94899 15.6073C10.163 15.5718 10.3677 15.4938 10.5511 15.378C10.7344 15.2622 10.8928 15.1108 11.0167 14.9328C11.2686 14.5704 11.3613 14.1251 11.2816 13.6928C11.236 13.4659 11.2115 13.2352 11.2085 13.0037C11.2111 12.0479 11.5921 11.1321 12.2683 10.4565C12.9444 9.78099 13.8606 9.40077 14.8164 9.39905C15.8679 9.39905 16.7943 9.85085 17.4704 10.5854C17.6569 10.7924 17.8936 10.9477 18.1577 11.0365C18.4218 11.1252 18.7043 11.1444 18.9779 11.0921C19.2516 11.0398 19.5071 10.9179 19.7199 10.738C19.9326 10.5582 20.0954 10.3265 20.1926 10.0654C21.4114 6.828 24.5188 4.52024 28.1722 4.52349C30.4344 4.52692 32.6029 5.42685 34.2028 7.02612C35.8027 8.62539 36.7034 10.7936 36.7077 13.0557C36.7077 13.3158 36.6931 13.5845 36.6638 13.8618C36.5826 14.702 37.1595 15.461 37.9884 15.617C41.0112 16.1745 43.3092 18.8105 43.3027 21.991C43.3019 23.7145 42.6175 25.3672 41.3998 26.5868C40.182 27.8064 38.5303 28.4948 36.8069 28.4983ZM13.3944 44.2642C13.3944 42.4521 13.4269 35.4476 13.4269 35.4362C13.4282 35.1101 13.3314 34.7911 13.1492 34.5207C12.9669 34.2503 12.7076 34.0409 12.4049 33.9196C12.1021 33.7984 11.77 33.7709 11.4514 33.8408C11.1329 33.9107 10.8427 34.0747 10.6186 34.3116C10.6104 34.3246 8.93488 36.096 7.23818 38.1178C6.39872 39.1078 5.60533 40.136 4.86053 41.1991C4.21045 42.2522 3.63514 42.9316 3.54087 44.2626C3.54216 45.5694 4.06163 46.8223 4.98535 47.7466C5.90908 48.671 7.16167 49.1913 8.46845 49.1934C9.77423 49.1908 11.0257 48.6708 11.9488 47.7471C12.8718 46.8235 13.3911 45.5716 13.3928 44.2659L13.3944 44.2642ZM6.79613 44.3374C6.94564 43.7685 8.55458 41.542 10.0368 39.8453L10.1603 39.6991C10.1521 41.5274 10.144 43.4289 10.144 44.2659C10.144 45.1857 9.39643 45.9349 8.47007 45.9398C8.03942 45.9362 7.62636 45.7684 7.31526 45.4706C7.00416 45.1728 6.81847 44.7674 6.79613 44.3374ZM25.4127 44.2642C25.4127 42.4521 25.4452 35.4492 25.4452 35.4394C25.4469 35.1133 25.3505 34.7942 25.1685 34.5236C24.9865 34.253 24.7272 34.0434 24.4245 33.9221C24.1218 33.8008 23.7895 33.7734 23.471 33.8434C23.1525 33.9135 22.8624 34.0777 22.6385 34.3148C22.6287 34.3278 20.9564 36.0928 19.2581 38.121C18.4168 39.1085 17.6234 40.1357 16.8804 41.1991C16.2303 42.2555 15.6567 42.9348 15.564 44.2675C15.5974 45.5516 16.1311 46.7718 17.0513 47.6681C17.9715 48.5643 19.2054 49.0657 20.4899 49.0653C21.7745 49.0649 23.008 48.5627 23.9276 47.6658C24.8472 46.769 25.3801 45.5483 25.4127 44.2642ZM18.8144 44.3406C18.9639 43.7718 20.5696 41.5453 22.0534 39.8453L22.1753 39.6991C22.1672 41.5258 22.159 43.4289 22.159 44.2626C22.1569 44.7059 21.9799 45.1304 21.6664 45.4439C21.3529 45.7574 20.9284 45.9344 20.4851 45.9365C19.5864 45.9317 18.8599 45.2231 18.8144 44.3406ZM36.5387 33.9183C36.2364 33.797 35.9047 33.7693 35.5865 33.8389C35.2683 33.9084 34.9784 34.072 34.7542 34.3083C33.5928 35.5458 32.4656 36.8151 31.3739 38.1145C30.5239 39.1286 29.6674 40.2013 28.9978 41.1942C28.3445 42.2506 27.7724 42.9283 27.6782 44.2593C27.6663 44.9132 27.7848 45.5629 28.0268 46.1705C28.2688 46.778 28.6295 47.3313 29.0877 47.7979C29.5459 48.2645 30.0925 48.6351 30.6956 48.8882C31.2986 49.1412 31.9461 49.2715 32.6001 49.2715C33.254 49.2715 33.9015 49.1412 34.5045 48.8882C35.1076 48.6351 35.6542 48.2645 36.1124 47.7979C36.5706 47.3313 36.9313 46.778 37.1733 46.1705C37.4153 45.5629 37.5338 44.9132 37.5219 44.2593C37.5219 42.4489 37.5577 35.4443 37.5577 35.4346C37.5595 35.109 37.4635 34.7904 37.2821 34.52C37.1007 34.2497 36.8407 34.04 36.5387 33.9183ZM34.2797 44.261C34.2771 44.7047 34.0995 45.1295 33.7854 45.4429C33.4714 45.7564 33.0462 45.9332 32.6025 45.9349C32.1727 45.9334 31.7598 45.767 31.4489 45.4701C31.1381 45.1731 30.953 44.7683 30.9318 44.339C31.0813 43.7702 32.687 41.5437 34.1708 39.8453C34.2114 39.7998 34.2521 39.7478 34.2911 39.7023C34.2846 41.5274 34.2781 43.4273 34.2781 44.2626L34.2797 44.261Z" fill="#141414" stroke="black"/>
</svg>
