<svg width="48" height="48" viewBox="0 0 48 48" fill="none" xmlns="http://www.w3.org/2000/svg">
<path d="M24 8.72728C23.3818 8.72728 22.864 8.51782 22.4465 8.09891C22.0291 7.68 21.8196 7.16219 21.8182 6.54546V2.18183C21.8182 1.56364 22.0276 1.04583 22.4465 0.628371C22.8655 0.210917 23.3833 0.00146207 24 7.52351e-06C24.6167 -0.00144702 25.1353 0.208007 25.5556 0.628371C25.976 1.04873 26.1847 1.56655 26.1818 2.18183V6.54546C26.1818 7.16364 25.9724 7.68219 25.5535 8.1011C25.1345 8.52 24.6167 8.72873 24 8.72728ZM34.8 13.2C34.4 12.8 34.2 12.3004 34.2 11.7011C34.2 11.1018 34.4 10.5833 34.8 10.1455L37.8545 7.03637C38.2909 6.60001 38.8087 6.38182 39.408 6.38182C40.0073 6.38182 40.5258 6.60001 40.9636 7.03637C41.3636 7.43637 41.5636 7.94546 41.5636 8.56364C41.5636 9.18182 41.3636 9.69091 40.9636 10.0909L37.8545 13.2C37.4545 13.6 36.9455 13.8 36.3273 13.8C35.7091 13.8 35.2 13.6 34.8 13.2ZM41.4545 26.1818C40.8364 26.1818 40.3178 25.9724 39.8989 25.5535C39.48 25.1345 39.2713 24.6167 39.2727 24C39.2742 23.3833 39.4836 22.8655 39.9011 22.4465C40.3185 22.0276 40.8364 21.8182 41.4545 21.8182H45.8182C46.4364 21.8182 46.9549 22.0276 47.3738 22.4465C47.7927 22.8655 48.0014 23.3833 48 24C47.9985 24.6167 47.7891 25.1353 47.3716 25.5556C46.9542 25.976 46.4364 26.1847 45.8182 26.1818H41.4545ZM24 48C23.3818 48 22.864 47.7905 22.4465 47.3716C22.0291 46.9527 21.8196 46.4349 21.8182 45.8182V41.4545C21.8182 40.8364 22.0276 40.3185 22.4465 39.9011C22.8655 39.4836 23.3833 39.2742 24 39.2727C24.6167 39.2713 25.1353 39.4807 25.5556 39.9011C25.976 40.3215 26.1847 40.8393 26.1818 41.4545V45.8182C26.1818 46.4364 25.9724 46.9549 25.5535 47.3738C25.1345 47.7927 24.6167 48.0014 24 48ZM10.1455 13.2L7.03637 10.1455C6.60001 9.7091 6.38182 9.18182 6.38182 8.56364C6.38182 7.94546 6.60001 7.43637 7.03637 7.03637C7.43637 6.63637 7.94546 6.43637 8.56364 6.43637C9.18182 6.43637 9.69091 6.63637 10.0909 7.03637L13.2 10.1455C13.6 10.5455 13.8 11.0545 13.8 11.6727C13.8 12.2909 13.6 12.8 13.2 13.2C12.7636 13.6 12.2545 13.8 11.6727 13.8C11.0909 13.8 10.5818 13.6 10.1455 13.2ZM37.8545 40.9636L34.8 37.8545C34.4 37.4182 34.2 36.9004 34.2 36.3011C34.2 35.7018 34.4 35.2015 34.8 34.8C35.2 34.3985 35.7004 34.1985 36.3011 34.2C36.9018 34.2015 37.4196 34.4015 37.8545 34.8L40.9636 37.8545C41.4 38.2545 41.6094 38.7636 41.592 39.3818C41.5745 40 41.3651 40.5273 40.9636 40.9636C40.5273 41.4 40 41.6182 39.3818 41.6182C38.7636 41.6182 38.2545 41.4 37.8545 40.9636ZM2.18183 26.1818C1.56364 26.1818 1.04583 25.9724 0.628371 25.5535C0.210917 25.1345 0.00146207 24.6167 7.52351e-06 24C-0.00144702 23.3833 0.208007 22.8655 0.628371 22.4465C1.04873 22.0276 1.56655 21.8182 2.18183 21.8182H6.54546C7.16364 21.8182 7.68219 22.0276 8.1011 22.4465C8.52 22.8655 8.72873 23.3833 8.72728 24C8.72582 24.6167 8.51637 25.1353 8.09891 25.5556C7.68146 25.976 7.16364 26.1847 6.54546 26.1818H2.18183ZM7.03637 40.9636C6.63637 40.5636 6.43637 40.0545 6.43637 39.4364C6.43637 38.8182 6.63637 38.3091 7.03637 37.9091L10.1455 34.8C10.5455 34.4 11.0451 34.2 11.6444 34.2C12.2436 34.2 12.7622 34.4 13.2 34.8C13.6364 35.2364 13.8545 35.7549 13.8545 36.3556C13.8545 36.9564 13.6364 37.4742 13.2 37.9091L10.1455 40.9636C9.7091 41.4 9.18182 41.6182 8.56364 41.6182C7.94546 41.6182 7.43637 41.4 7.03637 40.9636ZM24 37.0909C20.3636 37.0909 17.2727 35.8182 14.7273 33.2727C12.1818 30.7273 10.9091 27.6364 10.9091 24C10.9091 20.3636 12.1818 17.2727 14.7273 14.7273C17.2727 12.1818 20.3636 10.9091 24 10.9091C27.6364 10.9091 30.7273 12.1818 33.2727 14.7273C35.8182 17.2727 37.0909 20.3636 37.0909 24C37.0909 27.6364 35.8182 30.7273 33.2727 33.2727C30.7273 35.8182 27.6364 37.0909 24 37.0909ZM24 32.7273C26.4 32.7273 28.4545 31.8727 30.1636 30.1636C31.8727 28.4545 32.7273 26.4 32.7273 24C32.7273 21.6 31.8727 19.5455 30.1636 17.8364C28.4545 16.1273 26.4 15.2727 24 15.2727C21.6 15.2727 19.5455 16.1273 17.8364 17.8364C16.1273 19.5455 15.2727 21.6 15.2727 24C15.2727 26.4 16.1273 28.4545 17.8364 30.1636C19.5455 31.8727 21.6 32.7273 24 32.7273Z" fill="black"/>
</svg>
