<svg width="44" height="49" viewBox="0 0 44 49" fill="none" xmlns="http://www.w3.org/2000/svg">
<path d="M27.5023 31.7116C28.394 31.7115 29.2724 31.9283 30.0618 32.3431C30.8512 32.758 31.5278 33.3586 32.0335 34.0931C32.5392 34.8276 32.8587 35.674 32.9646 36.5595C33.0704 37.4449 32.9594 38.3428 32.6412 39.1759C32.3229 40.0089 31.8069 40.752 31.1376 41.3413C30.4682 41.9306 29.6657 42.3483 28.7991 42.5585C27.9325 42.7686 27.0277 42.765 26.1628 42.5478C25.2979 42.3306 24.4988 41.9065 23.8343 41.3118C23.4177 40.9385 23.159 40.4205 23.1107 39.8632C23.0624 39.3059 23.2281 38.7512 23.5742 38.3117C23.9204 37.8723 24.4208 37.5812 24.9739 37.4976C25.527 37.4139 26.0912 37.5441 26.5517 37.8616L26.7696 38.0332C26.9026 38.152 27.0624 38.2366 27.2354 38.2798C27.4084 38.3231 27.5893 38.3236 27.7625 38.2815C27.9357 38.2393 28.0961 38.1556 28.2298 38.0377C28.3636 37.9198 28.4666 37.7712 28.5302 37.6046C28.5937 37.438 28.6158 37.2585 28.5946 37.0815C28.5734 36.9045 28.5094 36.7352 28.4083 36.5884C28.3071 36.4416 28.1718 36.3215 28.014 36.2386C27.8562 36.1557 27.6806 36.1123 27.5023 36.1123H10.9995C10.4159 36.1123 9.8562 35.8805 9.44355 35.4678C9.0309 35.0552 8.79907 34.4955 8.79907 33.9119C8.79907 33.3284 9.0309 32.7687 9.44355 32.356C9.8562 31.9434 10.4159 31.7116 10.9995 31.7116H27.5023ZM20.9012 0.906251C23.8111 0.905355 26.6521 1.79209 29.0449 3.44809C31.4376 5.10408 33.2684 7.45055 34.2927 10.1742C36.674 10.8285 38.8241 12.1373 40.499 13.9521C42.1739 15.7669 43.3064 18.0149 43.7679 20.441C44.2294 22.867 44.0015 25.3738 43.1099 27.6768C42.2184 29.9799 40.699 31.9867 38.7242 33.4697C38.2567 33.7984 37.6796 33.9324 37.1151 33.8432C36.5506 33.754 36.0429 33.4486 35.6995 32.9918C35.3561 32.5349 35.204 31.9623 35.2753 31.3952C35.3466 30.8282 35.6358 30.3111 36.0816 29.9534C37.4613 28.9183 38.5065 27.5006 39.0874 25.8765C39.6683 24.2523 39.7594 22.4933 39.3492 20.8179C38.939 19.1425 38.0457 17.6245 36.7802 16.4525C35.5147 15.2804 33.9328 14.5059 32.2309 14.2251C31.8135 14.1568 31.4246 13.9695 31.1108 13.6858C30.7971 13.4021 30.5717 13.0339 30.4618 12.6255C29.8145 10.2107 28.2777 8.13012 26.16 6.80149C24.0422 5.47285 21.5003 4.99448 19.0444 5.46242C16.5885 5.93036 14.4006 7.30997 12.9198 9.32428C11.439 11.3386 10.775 13.8385 11.0611 16.3221C11.1204 16.8527 10.9848 17.3867 10.6796 17.8248C10.3744 18.2628 9.92029 18.5749 9.40198 18.7029C8.10216 19.0273 6.93181 19.7395 6.0464 20.7449C5.85511 20.9616 5.62301 21.1385 5.36334 21.2655C5.10368 21.3925 4.82154 21.4672 4.53304 21.4851C3.95037 21.5215 3.37715 21.3248 2.93946 20.9385C2.50178 20.5522 2.23549 20.0078 2.19918 19.4251C2.16287 18.8425 2.3595 18.2692 2.74583 17.8316C3.80947 16.6253 5.12463 15.6669 6.59869 15.0239C6.6473 11.2628 8.1756 7.67217 10.8526 5.02979C13.5296 2.3874 17.1397 0.905937 20.9012 0.906251ZM19.801 16.3089C21.5517 16.3089 23.2307 17.0044 24.4687 18.2423C25.7066 19.4803 26.4021 21.1593 26.4021 22.91C26.4021 24.6608 25.7066 26.3398 24.4687 27.5777C23.2307 28.8157 21.5517 29.5112 19.801 29.5112H2.19794C1.61436 29.5112 1.05469 29.2793 0.642034 28.8667C0.229383 28.454 -0.00244141 27.8944 -0.00244141 27.3108C-0.00244141 26.7272 0.229383 26.1675 0.642034 25.7549C1.05469 25.3422 1.61436 25.1104 2.19794 25.1104H19.801C20.1765 25.1104 20.5458 25.0143 20.8737 24.8312C21.2015 24.6481 21.4771 24.3842 21.6741 24.0645C21.8712 23.7448 21.9831 23.38 21.9993 23.0048C22.0154 22.6296 21.9353 22.2565 21.7665 21.9211C21.5978 21.5856 21.3459 21.2989 21.035 21.0883C20.7241 20.8777 20.3645 20.7501 19.9903 20.7178C19.6162 20.6855 19.24 20.7495 18.8976 20.9036C18.5551 21.0578 18.2579 21.2971 18.0341 21.5986L17.8932 21.812C17.6009 22.3171 17.1198 22.6854 16.5559 22.8358C15.9921 22.9862 15.3915 22.9065 14.8864 22.6141C14.3813 22.3217 14.0131 21.8407 13.8627 21.2768C13.7123 20.7129 13.792 20.1124 14.0844 19.6073C14.664 18.6042 15.4974 17.7713 16.5009 17.1924C17.5043 16.6134 18.6425 16.3087 19.801 16.3089Z" fill="black"/>
</svg>
