<svg width="24" height="25" viewBox="0 0 24 25" fill="none" xmlns="http://www.w3.org/2000/svg">
<path d="M12 22.3926C6.477 22.3926 2 17.9156 2 12.3926C2 6.86958 6.477 2.39258 12 2.39258C17.523 2.39258 22 6.87058 22 12.3926C22 17.9146 17.523 22.3926 12 22.3926ZM12 7.39258C11.7348 7.39258 11.4804 7.49793 11.2929 7.68547C11.1054 7.87301 11 8.12736 11 8.39258V13.3926C11 13.6578 11.1054 13.9121 11.2929 14.0997C11.4804 14.2872 11.7348 14.3926 12 14.3926C12.2652 14.3926 12.5196 14.2872 12.7071 14.0997C12.8946 13.9121 13 13.6578 13 13.3926V8.39258C13 8.12736 12.8946 7.87301 12.7071 7.68547C12.5196 7.49793 12.2652 7.39258 12 7.39258ZM12 17.3926C12.2652 17.3926 12.5196 17.2872 12.7071 17.0997C12.8946 16.9121 13 16.6578 13 16.3926C13 16.1274 12.8946 15.873 12.7071 15.6855C12.5196 15.4979 12.2652 15.3926 12 15.3926C11.7348 15.3926 11.4804 15.4979 11.2929 15.6855C11.1054 15.873 11 16.1274 11 16.3926C11 16.6578 11.1054 16.9121 11.2929 17.0997C11.4804 17.2872 11.7348 17.3926 12 17.3926Z" fill="#141414"/>
</svg>
