<svg width="16" height="16" viewBox="0 0 16 16" fill="none" xmlns="http://www.w3.org/2000/svg">
<path d="M7.99731 0C12.4157 0 15.9973 3.5816 15.9973 8C15.9973 12.4184 12.4157 16 7.99731 16C3.57891 16 -0.00268555 12.4184 -0.00268555 8C-0.00268555 3.5816 3.57891 0 7.99731 0ZM7.99731 11.2C7.78514 11.2 7.58166 11.2843 7.43163 11.4343C7.2816 11.5843 7.19731 11.7878 7.19731 12C7.19731 12.2122 7.2816 12.4157 7.43163 12.5657C7.58166 12.7157 7.78514 12.8 7.99731 12.8C8.20949 12.8 8.41297 12.7157 8.563 12.5657C8.71303 12.4157 8.79731 12.2122 8.79731 12C8.79731 11.7878 8.71303 11.5843 8.563 11.4343C8.41297 11.2843 8.20949 11.2 7.99731 11.2ZM7.99731 3.6C7.22819 3.6 6.49056 3.90553 5.9467 4.44939C5.40285 4.99325 5.09731 5.73087 5.09731 6.5C5.09731 6.71217 5.1816 6.91566 5.33163 7.06569C5.48166 7.21571 5.68514 7.3 5.89731 7.3C6.10949 7.3 6.31297 7.21571 6.463 7.06569C6.61303 6.91566 6.69731 6.71217 6.69731 6.5C6.69758 6.26403 6.76207 6.03258 6.88386 5.83047C7.00566 5.62836 7.18017 5.46321 7.38868 5.35274C7.59719 5.24226 7.83184 5.19062 8.06747 5.20335C8.30309 5.21609 8.53081 5.29271 8.7262 5.42502C8.92159 5.55732 9.07729 5.74032 9.17659 5.95438C9.2759 6.16843 9.31507 6.40549 9.2899 6.64011C9.26473 6.87474 9.17618 7.09809 9.03373 7.28621C8.89129 7.47434 8.70032 7.62015 8.48131 7.708C7.94051 7.924 7.19731 8.4776 7.19731 9.4V9.6C7.19731 9.81217 7.2816 10.0157 7.43163 10.1657C7.58166 10.3157 7.78514 10.4 7.99731 10.4C8.20949 10.4 8.41297 10.3157 8.563 10.1657C8.71303 10.0157 8.79731 9.81217 8.79731 9.6C8.79731 9.4048 8.83731 9.3072 9.00611 9.224L9.07571 9.192C9.70037 8.94071 10.2182 8.47996 10.5403 7.88873C10.8625 7.29751 10.9689 6.61263 10.8414 5.95151C10.7139 5.29039 10.3604 4.69421 9.84151 4.26518C9.3226 3.83614 8.67061 3.60098 7.99731 3.6Z" fill="#666666"/>
</svg>
